<?xml version="1.0" standalone="no"?>
<!DOCTYPE svg PUBLIC "-//W3C//DTD SVG 20010904//EN"
 "http://www.w3.org/TR/2001/REC-SVG-20010904/DTD/svg10.dtd">
<svg version="1.0" xmlns="http://www.w3.org/2000/svg"
 width="300.000000pt" height="300.000000pt" viewBox="0 0 300.000000 300.000000"
 preserveAspectRatio="xMidYMid meet">
<metadata>
Created by potrace 1.14, written by Peter Selinger 2001-2017
</metadata>
<g transform="translate(0.000000,300.000000) scale(0.100000,-0.100000)"
fill="#000000" stroke="none">
<path d="M0 1500 l0 -1500 1500 0 1500 0 0 1500 0 1500 -1500 0 -1500 0 0
-1500z m751 895 c85 -44 207 -79 351 -102 161 -25 605 -25 768 0 156 24 287
60 378 103 55 26 80 34 92 27 25 -17 23 -41 -9 -85 -17 -24 -35 -65 -41 -92
-15 -69 -25 -83 -81 -117 -52 -32 -69 -54 -69 -88 0 -31 -31 -41 -126 -41 -76
0 -91 -3 -111 -22 -26 -24 -29 -38 -10 -38 8 0 22 -9 32 -20 15 -17 31 -20 91
-20 40 0 76 5 79 10 3 6 15 10 26 10 18 0 20 -6 17 -92 l-3 -93 -123 -3 -123
-3 3 -72 c3 -65 5 -72 25 -75 42 -6 48 -27 22 -85 -24 -51 -24 -59 -27 -397
-2 -226 -7 -349 -14 -357 -15 -18 -78 -16 -100 4 -17 15 -18 44 -18 500 l0
483 -280 0 -280 0 0 -482 c0 -540 3 -518 -70 -518 -66 0 -65 -5 -68 379 -3
322 -5 349 -24 393 -23 53 -16 74 25 80 20 3 22 10 25 75 l3 72 -123 3 -123 3
-3 93 c-3 86 -1 92 17 92 11 0 23 -4 26 -10 3 -5 39 -10 79 -10 60 0 76 3 91
20 10 11 24 20 32 20 19 0 16 10 -9 37 -19 21 -30 23 -110 23 -97 0 -128 10
-128 41 0 34 -17 56 -69 88 -54 32 -75 64 -84 123 -3 21 -19 57 -36 82 -34 48
-37 66 -19 84 17 17 25 16 99 -23z"/>
<path d="M1242 1969 c-23 -28 -23 -29 -3 -29 11 0 28 -11 39 -25 17 -22 28
-25 81 -25 l61 0 0 55 0 55 -77 -1 c-74 0 -79 -2 -101 -30z"/>
<path d="M1580 1945 l0 -55 61 0 c53 0 64 3 81 25 11 14 29 25 41 25 19 0 19
2 -8 30 -27 28 -34 30 -102 30 l-73 0 0 -55z"/>
</g>
</svg>
